<!DOCTYPE svg PUBLIC "-//W3C//DTD SVG 1.1//EN" "http://www.w3.org/Graphics/SVG/1.1/DTD/svg11.dtd">
<!-- Uploaded to: SVG Repo, www.svgrepo.com, Transformed by: SVG Repo Mixer Tools -->
<svg fill="#000000" width="800px" height="800px" viewBox="0 0 24 24" id="hour-glass" data-name="Flat Line" xmlns="http://www.w3.org/2000/svg" class="icon flat-line">
<g id="SVGRepo_bgCarrier" stroke-width="0"/>
<g id="SVGRepo_tracerCarrier" stroke-linecap="round" stroke-linejoin="round"/>
<g id="SVGRepo_iconCarrier">
<path id="secondary" d="M12,12h0A5,5,0,0,1,7,7V3H17V7A5,5,0,0,1,12,12Zm0,0h0a5,5,0,0,0-5,5v4H17V17A5,5,0,0,0,12,12Z" style="fill: #9b7a5d; stroke-width: 2;"/>
<path id="primary" d="M12,12h0A5,5,0,0,1,7,7V3H17V7A5,5,0,0,1,12,12Zm0,0h0a5,5,0,0,0-5,5v4H17V17A5,5,0,0,0,12,12ZM5,3H19M5,21H19" style="fill: none; stroke: #000000; stroke-linecap: round; stroke-linejoin: round; stroke-width: 2;"/>
</g>
</svg>